<svg width="1180" height="610" viewBox="0 0 1180 610" xmlns="http://www.w3.org/2000/svg" role="img" aria-label="Raju Pandit - GitHub profile header"><title>Raju Pandit — GitHub Profile Header</title><defs><linearGradient id="accentGrad" x1="0%" y1="0%" x2="100%" y2="100%">
      <stop offset="0%" stop-color="#7C3AED"/>
      <stop offset="50%" stop-color="#22D3EE"/>
      <stop offset="100%" stop-color="#10B981"/>
      <animateTransform attributeName="gradientTransform" type="rotate" values="0 0.5 0.5;360 0.5 0.5" dur="14s" repeatCount="indefinite"/>
    </linearGradient><linearGradient id="asciiGrad" gradientUnits="userSpaceOnUse" x1="76.20000000000002" y1="84" x2="403.79999999999995" y2="512.4">
      <stop offset="0%" stop-color="#7C3AED"/>
      <stop offset="45%" stop-color="#22D3EE"/>
      <stop offset="100%" stop-color="#10B981"/>
      <animate attributeName="x1" values="-43.79999999999998;523.8;-43.79999999999998" dur="9s" repeatCount="indefinite"/>
      <animate attributeName="x2" values="283.79999999999995;851.4;283.79999999999995" dur="9s" repeatCount="indefinite"/>
    </linearGradient><linearGradient id="roleGrad" x1="0%" y1="0%" x2="100%" y2="0%">
      <stop offset="0%" stop-color="#7C3AED"/>
      <stop offset="50%" stop-color="#22D3EE"/>
      <stop offset="100%" stop-color="#10B981"/>
    </linearGradient><linearGradient id="glassSheen" x1="0%" y1="0%" x2="100%" y2="100%">
      <stop offset="0%" stop-color="#FFFFFF" stop-opacity="0.05"/>
      <stop offset="18%" stop-color="#FFFFFF" stop-opacity="0"/>
      <stop offset="100%" stop-color="#FFFFFF" stop-opacity="0"/>
    </linearGradient><linearGradient id="scanGradV" x1="0%" y1="0%" x2="0%" y2="100%">
      <stop offset="0%" stop-color="#22D3EE" stop-opacity="0"/>
      <stop offset="50%" stop-color="#22D3EE" stop-opacity="0.35"/>
      <stop offset="100%" stop-color="#22D3EE" stop-opacity="0"/>
    </linearGradient><linearGradient id="scanGradH" x1="0%" y1="0%" x2="0%" y2="100%">
      <stop offset="0%" stop-color="#22D3EE" stop-opacity="0"/>
      <stop offset="50%" stop-color="#22D3EE" stop-opacity="0.06"/>
      <stop offset="100%" stop-color="#22D3EE" stop-opacity="0"/>
    </linearGradient><linearGradient id="borderShimmer" gradientUnits="userSpaceOnUse" x1="-300" y1="0" x2="0" y2="0">
      <stop offset="0%" stop-color="#FFFFFF" stop-opacity="0.12"/>
      <stop offset="45%" stop-color="#22D3EE" stop-opacity="0.8"/>
      <stop offset="55%" stop-color="#7C3AED" stop-opacity="0.8"/>
      <stop offset="100%" stop-color="#FFFFFF" stop-opacity="0.12"/>
      <animateTransform attributeName="gradientTransform" type="translate" values="0,0; 1480,0; 0,0" dur="10s" repeatCount="indefinite"/>
    </linearGradient><radialGradient id="blobV" cx="50%" cy="50%" r="50%">
      <stop offset="0%" stop-color="#7C3AED" stop-opacity="0.16"/>
      <stop offset="100%" stop-color="#7C3AED" stop-opacity="0"/>
    </radialGradient><radialGradient id="blobC" cx="50%" cy="50%" r="50%">
      <stop offset="0%" stop-color="#22D3EE" stop-opacity="0.16"/>
      <stop offset="100%" stop-color="#22D3EE" stop-opacity="0"/>
    </radialGradient><radialGradient id="blobE" cx="50%" cy="50%" r="50%">
      <stop offset="0%" stop-color="#10B981" stop-opacity="0.16"/>
      <stop offset="100%" stop-color="#10B981" stop-opacity="0"/>
    </radialGradient><filter id="blurBlob" x="-50%" y="-50%" width="200%" height="200%"><feGaussianBlur stdDeviation="45"/></filter><filter id="glowName" x="-60%" y="-200%" width="220%" height="500%"><feGaussianBlur stdDeviation="16"/></filter><filter id="noiseTex" x="0" y="0" width="100%" height="100%">
      <feTurbulence type="fractalNoise" baseFrequency="0.85" numOctaves="2" stitchTiles="stitch" result="n"/>
      <feColorMatrix in="n" type="matrix" values="0 0 0 0 1  0 0 0 0 1  0 0 0 0 1  0 0 0 0.025 0"/>
    </filter><clipPath id="canvasClip"><rect x="0" y="0" width="1180" height="610" rx="28"/></clipPath></defs><g clip-path="url(#canvasClip)"><rect x="0" y="0" width="1180" height="610" fill="#030712"/><circle cx="160" cy="140" r="260" fill="url(#blobV)" filter="url(#blurBlob)"><animateTransform attributeName="transform" type="translate" values="0,0; 26,-18; 0,0" dur="42s" repeatCount="indefinite"/></circle><circle cx="980" cy="160" r="300" fill="url(#blobC)" filter="url(#blurBlob)"><animateTransform attributeName="transform" type="translate" values="0,0; -22,20; 0,0" dur="38s" repeatCount="indefinite"/></circle><circle cx="560" cy="560" r="320" fill="url(#blobE)" filter="url(#blurBlob)"><animateTransform attributeName="transform" type="translate" values="0,0; 20,-24; 0,0" dur="36s" repeatCount="indefinite"/></circle><rect x="0" y="0" width="1180" height="610" filter="url(#noiseTex)"/><rect x="0" y="-80" width="1180" height="80" fill="url(#scanGradH)"><animate attributeName="y" values="-80;610;-80" dur="9s" repeatCount="indefinite"/></rect><circle cx="535.7" cy="339.1" r="1.72" fill="#7C3AED" opacity="0"><animate attributeName="opacity" values="0;0.6;0" dur="9.3s" begin="2.94s" repeatCount="indefinite"/><animateTransform attributeName="transform" type="translate" values="0,0; 0,-40" dur="9.3s" begin="2.94s" repeatCount="indefinite"/></circle><circle cx="936.4" cy="291.2" r="1.38" fill="#10B981" opacity="0"><animate attributeName="opacity" values="0;0.6;0" dur="7.3s" begin="0.71s" repeatCount="indefinite"/><animateTransform attributeName="transform" type="translate" values="0,0; 0,-38" dur="7.3s" begin="0.71s" repeatCount="indefinite"/></circle><circle cx="943.0" cy="415.3" r="0.75" fill="#10B981" opacity="0"><animate attributeName="opacity" values="0;0.6;0" dur="12.9s" begin="3.27s" repeatCount="indefinite"/><animateTransform attributeName="transform" type="translate" values="0,0; 0,-59" dur="12.9s" begin="3.27s" repeatCount="indefinite"/></circle><circle cx="761.1" cy="375.2" r="1.61" fill="#10B981" opacity="0"><animate attributeName="opacity" values="0;0.6;0" dur="6.4s" begin="4.4s" repeatCount="indefinite"/><animateTransform attributeName="transform" type="translate" values="0,0; 0,-21" dur="6.4s" begin="4.4s" repeatCount="indefinite"/></circle><circle cx="54.3" cy="284.4" r="1.18" fill="#22D3EE" opacity="0"><animate attributeName="opacity" values="0;0.6;0" dur="11.9s" begin="3.2s" repeatCount="indefinite"/><animateTransform attributeName="transform" type="translate" values="0,0; 0,-41" dur="11.9s" begin="3.2s" repeatCount="indefinite"/></circle><circle cx="25.2" cy="68.4" r="1.42" fill="#7C3AED" opacity="0"><animate attributeName="opacity" values="0;0.6;0" dur="8.8s" begin="4.66s" repeatCount="indefinite"/><animateTransform attributeName="transform" type="translate" values="0,0; 0,-42" dur="8.8s" begin="4.66s" repeatCount="indefinite"/></circle><circle cx="826.9" cy="199.7" r="0.95" fill="#22D3EE" opacity="0"><animate attributeName="opacity" values="0;0.6;0" dur="8.0s" begin="3.83s" repeatCount="indefinite"/><animateTransform attributeName="transform" type="translate" values="0,0; 0,-23" dur="8.0s" begin="3.83s" repeatCount="indefinite"/></circle><circle cx="142.9" cy="185.8" r="0.77" fill="#7C3AED" opacity="0"><animate attributeName="opacity" values="0;0.6;0" dur="6.1s" begin="1.07s" repeatCount="indefinite"/><animateTransform attributeName="transform" type="translate" values="0,0; 0,-47" dur="6.1s" begin="1.07s" repeatCount="indefinite"/></circle><circle cx="555.8" cy="578.8" r="1.14" fill="#22D3EE" opacity="0"><animate attributeName="opacity" values="0;0.6;0" dur="6.5s" begin="3.89s" repeatCount="indefinite"/><animateTransform attributeName="transform" type="translate" values="0,0; 0,-45" dur="6.5s" begin="3.89s" repeatCount="indefinite"/></circle><circle cx="404.1" cy="197.4" r="0.72" fill="#10B981" opacity="0"><animate attributeName="opacity" values="0;0.6;0" dur="8.9s" begin="0.67s" repeatCount="indefinite"/><animateTransform attributeName="transform" type="translate" values="0,0; 0,-57" dur="8.9s" begin="0.67s" repeatCount="indefinite"/></circle><circle cx="135.2" cy="54.1" r="1.58" fill="#7C3AED" opacity="0"><animate attributeName="opacity" values="0;0.6;0" dur="7.2s" begin="2.24s" repeatCount="indefinite"/><animateTransform attributeName="transform" type="translate" values="0,0; 0,-42" dur="7.2s" begin="2.24s" repeatCount="indefinite"/></circle><circle cx="1143.2" cy="458.6" r="1.16" fill="#7C3AED" opacity="0"><animate attributeName="opacity" values="0;0.6;0" dur="8.7s" begin="4.95s" repeatCount="indefinite"/><animateTransform attributeName="transform" type="translate" values="0,0; 0,-36" dur="8.7s" begin="4.95s" repeatCount="indefinite"/></circle><circle cx="327.6" cy="573.4" r="1.58" fill="#22D3EE" opacity="0"><animate attributeName="opacity" values="0;0.6;0" dur="8.1s" begin="1.05s" repeatCount="indefinite"/><animateTransform attributeName="transform" type="translate" values="0,0; 0,-55" dur="8.1s" begin="1.05s" repeatCount="indefinite"/></circle><circle cx="1155.3" cy="363.2" r="1.33" fill="#7C3AED" opacity="0"><animate attributeName="opacity" values="0;0.6;0" dur="6.3s" begin="2.21s" repeatCount="indefinite"/><animateTransform attributeName="transform" type="translate" values="0,0; 0,-26" dur="6.3s" begin="2.21s" repeatCount="indefinite"/></circle><circle cx="900.9" cy="207.5" r="1.03" fill="#7C3AED" opacity="0"><animate attributeName="opacity" values="0;0.6;0" dur="6.5s" begin="2.91s" repeatCount="indefinite"/><animateTransform attributeName="transform" type="translate" values="0,0; 0,-24" dur="6.5s" begin="2.91s" repeatCount="indefinite"/></circle><circle cx="37.7" cy="230.1" r="1.38" fill="#7C3AED" opacity="0"><animate attributeName="opacity" values="0;0.6;0" dur="6.9s" begin="4.16s" repeatCount="indefinite"/><animateTransform attributeName="transform" type="translate" values="0,0; 0,-43" dur="6.9s" begin="4.16s" repeatCount="indefinite"/></circle><circle cx="1007.8" cy="124.2" r="0.87" fill="#7C3AED" opacity="0"><animate attributeName="opacity" values="0;0.6;0" dur="12.4s" begin="1.25s" repeatCount="indefinite"/><animateTransform attributeName="transform" type="translate" values="0,0; 0,-53" dur="12.4s" begin="1.25s" repeatCount="indefinite"/></circle><circle cx="200.7" cy="378.5" r="1.31" fill="#7C3AED" opacity="0"><animate attributeName="opacity" values="0;0.6;0" dur="10.8s" begin="2.41s" repeatCount="indefinite"/><animateTransform attributeName="transform" type="translate" values="0,0; 0,-36" dur="10.8s" begin="2.41s" repeatCount="indefinite"/></circle><circle cx="500.5" cy="79.2" r="0.74" fill="#22D3EE" opacity="0"><animate attributeName="opacity" values="0;0.6;0" dur="12.7s" begin="3.52s" repeatCount="indefinite"/><animateTransform attributeName="transform" type="translate" values="0,0; 0,-30" dur="12.7s" begin="3.52s" repeatCount="indefinite"/></circle><circle cx="499.7" cy="535.7" r="1.24" fill="#7C3AED" opacity="0"><animate attributeName="opacity" values="0;0.6;0" dur="9.6s" begin="4.89s" repeatCount="indefinite"/><animateTransform attributeName="transform" type="translate" values="0,0; 0,-57" dur="9.6s" begin="4.89s" repeatCount="indefinite"/></circle><circle cx="280.4" cy="338.8" r="1.64" fill="#7C3AED" opacity="0"><animate attributeName="opacity" values="0;0.6;0" dur="10.3s" begin="4.59s" repeatCount="indefinite"/><animateTransform attributeName="transform" type="translate" values="0,0; 0,-31" dur="10.3s" begin="4.59s" repeatCount="indefinite"/></circle><circle cx="873.8" cy="59.4" r="1.15" fill="#10B981" opacity="0"><animate attributeName="opacity" values="0;0.6;0" dur="7.7s" begin="1.41s" repeatCount="indefinite"/><animateTransform attributeName="transform" type="translate" values="0,0; 0,-22" dur="7.7s" begin="1.41s" repeatCount="indefinite"/></circle><clipPath id="clip-left"><rect x="20" y="20" width="440" height="570" rx="20"/></clipPath><g clip-path="url(#clip-left)"><rect x="20" y="20" width="440" height="570" fill="#0F172A" fill-opacity="0.55"/><rect x="20" y="20" width="440" height="570" fill="url(#glassSheen)"/><rect x="20" y="20" width="440" height="38" fill="#111827" fill-opacity="0.6"/><line x1="20" y1="58" x2="460" y2="58" stroke="#FFFFFF" stroke-opacity="0.35" stroke-width="1"/><circle cx="40" cy="39.0" r="4.6" fill="#FF5F56" fill-opacity="0.85"/><circle cx="56" cy="39.0" r="4.6" fill="#FFBD2E" fill-opacity="0.85"/><circle cx="72" cy="39.0" r="4.6" fill="#27C93F" fill-opacity="0.85"/><text x="240.0" y="43.0" text-anchor="middle" font-family="'JetBrains Mono','SFMono-Regular','Cascadia Code','Consolas',monospace" font-size="11" letter-spacing="0.5" fill="#94A3B8" fill-opacity="0.85">portrait.ascii</text></g><rect x="20" y="20" width="440" height="570" rx="20" fill="none" stroke="#FFFFFF" stroke-opacity="0.14" stroke-width="1"/><rect x="20" y="20" width="440" height="570" rx="20" fill="none" stroke="url(#accentGrad)" stroke-opacity="0.22" stroke-width="1"/><clipPath id="asciiClip"><rect x="36" y="66" width="408" height="508"/></clipPath><g clip-path="url(#asciiClip)"><g id="asciiFloat"><animateTransform attributeName="transform" type="translate" values="0,0; 0,-7; 0,0" dur="7s" repeatCount="indefinite"/><text x="76.20000000000002" y="96.6" xml:space="preserve" font-family="'JetBrains Mono','SFMono-Regular','Cascadia Code','Consolas',monospace" font-size="10.33" fill="url(#asciiGrad)" opacity="0">                                                    <animate attributeName="opacity" from="0" to="1" begin="0.35s" dur="0.4s" fill="freeze"/></text><text x="76.20000000000002" y="109.19999999999999" xml:space="preserve" font-family="'JetBrains Mono','SFMono-Regular','Cascadia Code','Consolas',monospace" font-size="10.33" fill="url(#asciiGrad)" opacity="0">                                                    <animate attributeName="opacity" from="0" to="1" begin="0.395s" dur="0.4s" fill="freeze"/></text><text x="76.20000000000002" y="121.8" xml:space="preserve" font-family="'JetBrains Mono','SFMono-Regular','Cascadia Code','Consolas',monospace" font-size="10.33" fill="url(#asciiGrad)" opacity="0">                                                    <animate attributeName="opacity" from="0" to="1" begin="0.44s" dur="0.4s" fill="freeze"/></text><text x="76.20000000000002" y="134.4" xml:space="preserve" font-family="'JetBrains Mono','SFMono-Regular','Cascadia Code','Consolas',monospace" font-size="10.33" fill="url(#asciiGrad)" opacity="0">                      %%%%%%%%                      <animate attributeName="opacity" from="0" to="1" begin="0.485s" dur="0.4s" fill="freeze"/></text><text x="76.20000000000002" y="147.0" xml:space="preserve" font-family="'JetBrains Mono','SFMono-Regular','Cascadia Code','Consolas',monospace" font-size="10.33" fill="url(#asciiGrad)" opacity="0">                    %%:------:%%                    <animate attributeName="opacity" from="0" to="1" begin="0.53s" dur="0.4s" fill="freeze"/></text><text x="76.20000000000002" y="159.6" xml:space="preserve" font-family="'JetBrains Mono','SFMono-Regular','Cascadia Code','Consolas',monospace" font-size="10.33" fill="url(#asciiGrad)" opacity="0">                   %.-==++++==-.%                   <animate attributeName="opacity" from="0" to="1" begin="0.575s" dur="0.4s" fill="freeze"/></text><text x="76.20000000000002" y="172.2" xml:space="preserve" font-family="'JetBrains Mono','SFMono-Regular','Cascadia Code','Consolas',monospace" font-size="10.33" fill="url(#asciiGrad)" opacity="0">                  %.-=+******+=-.%                  <animate attributeName="opacity" from="0" to="1" begin="0.62s" dur="0.4s" fill="freeze"/></text><text x="76.20000000000002" y="184.79999999999998" xml:space="preserve" font-family="'JetBrains Mono','SFMono-Regular','Cascadia Code','Consolas',monospace" font-size="10.33" fill="url(#asciiGrad)" opacity="0">                  %:=+*######*+=:%                  <animate attributeName="opacity" from="0" to="1" begin="0.665s" dur="0.4s" fill="freeze"/></text><text x="76.20000000000002" y="197.4" xml:space="preserve" font-family="'JetBrains Mono','SFMono-Regular','Cascadia Code','Consolas',monospace" font-size="10.33" fill="url(#asciiGrad)" opacity="0">                 %:-+*##%%%%##*+-:%                 <animate attributeName="opacity" from="0" to="1" begin="0.71s" dur="0.4s" fill="freeze"/></text><text x="76.20000000000002" y="209.99999999999997" xml:space="preserve" font-family="'JetBrains Mono','SFMono-Regular','Cascadia Code','Consolas',monospace" font-size="10.33" fill="url(#asciiGrad)" opacity="0">                 ==================                 <animate attributeName="opacity" from="0" to="1" begin="0.755s" dur="0.4s" fill="freeze"/></text><text x="76.20000000000002" y="222.6" xml:space="preserve" font-family="'JetBrains Mono','SFMono-Regular','Cascadia Code','Consolas',monospace" font-size="10.33" fill="url(#asciiGrad)" opacity="0">                 %:--------------:%                 <animate attributeName="opacity" from="0" to="1" begin="0.8s" dur="0.4s" fill="freeze"/></text><text x="76.20000000000002" y="235.2" xml:space="preserve" font-family="'JetBrains Mono','SFMono-Regular','Cascadia Code','Consolas',monospace" font-size="10.33" fill="url(#asciiGrad)" opacity="0">                 %:-+*#%%%%%%#*+-:%                 <animate attributeName="opacity" from="0" to="1" begin="0.845s" dur="0.4s" fill="freeze"/></text><text x="76.20000000000002" y="247.79999999999998" xml:space="preserve" font-family="'JetBrains Mono','SFMono-Regular','Cascadia Code','Consolas',monospace" font-size="10.33" fill="url(#asciiGrad)" opacity="0">                  %-=+*##%%##*+=-%                  <animate attributeName="opacity" from="0" to="1" begin="0.89s" dur="0.4s" fill="freeze"/></text><text x="76.20000000000002" y="260.4" xml:space="preserve" font-family="'JetBrains Mono','SFMono-Regular','Cascadia Code','Consolas',monospace" font-size="10.33" fill="url(#asciiGrad)" opacity="0">                  %:-=+**##**+=-:%                  <animate attributeName="opacity" from="0" to="1" begin="0.935s" dur="0.4s" fill="freeze"/></text><text x="76.20000000000002" y="273.0" xml:space="preserve" font-family="'JetBrains Mono','SFMono-Regular','Cascadia Code','Consolas',monospace" font-size="10.33" fill="url(#asciiGrad)" opacity="0">                   %:-=++++++=-:%                   <animate attributeName="opacity" from="0" to="1" begin="0.98s" dur="0.4s" fill="freeze"/></text><text x="76.20000000000002" y="285.6" xml:space="preserve" font-family="'JetBrains Mono','SFMono-Regular','Cascadia Code','Consolas',monospace" font-size="10.33" fill="url(#asciiGrad)" opacity="0">                    %:--====--:%                    <animate attributeName="opacity" from="0" to="1" begin="1.025s" dur="0.4s" fill="freeze"/></text><text x="76.20000000000002" y="298.20000000000005" xml:space="preserve" font-family="'JetBrains Mono','SFMono-Regular','Cascadia Code','Consolas',monospace" font-size="10.33" fill="url(#asciiGrad)" opacity="0">                     %%.::::.%%                     <animate attributeName="opacity" from="0" to="1" begin="1.07s" dur="0.4s" fill="freeze"/></text><text x="76.20000000000002" y="310.8" xml:space="preserve" font-family="'JetBrains Mono','SFMono-Regular','Cascadia Code','Consolas',monospace" font-size="10.33" fill="url(#asciiGrad)" opacity="0">                        %%%%                        <animate attributeName="opacity" from="0" to="1" begin="1.115s" dur="0.4s" fill="freeze"/></text><text x="76.20000000000002" y="323.4" xml:space="preserve" font-family="'JetBrains Mono','SFMono-Regular','Cascadia Code','Consolas',monospace" font-size="10.33" fill="url(#asciiGrad)" opacity="0">                                                    <animate attributeName="opacity" from="0" to="1" begin="1.16s" dur="0.4s" fill="freeze"/></text><text x="76.20000000000002" y="336.0" xml:space="preserve" font-family="'JetBrains Mono','SFMono-Regular','Cascadia Code','Consolas',monospace" font-size="10.33" fill="url(#asciiGrad)" opacity="0">                                                    <animate attributeName="opacity" from="0" to="1" begin="1.205s" dur="0.4s" fill="freeze"/></text><text x="76.20000000000002" y="348.6" xml:space="preserve" font-family="'JetBrains Mono','SFMono-Regular','Cascadia Code','Consolas',monospace" font-size="10.33" fill="url(#asciiGrad)" opacity="0">                       %%%%%%                       <animate attributeName="opacity" from="0" to="1" begin="1.25s" dur="0.4s" fill="freeze"/></text><text x="76.20000000000002" y="361.2" xml:space="preserve" font-family="'JetBrains Mono','SFMono-Regular','Cascadia Code','Consolas',monospace" font-size="10.33" fill="url(#asciiGrad)" opacity="0">                 %%%%%%%%%%%%%%%%%%                 <animate attributeName="opacity" from="0" to="1" begin="1.295s" dur="0.4s" fill="freeze"/></text><text x="76.20000000000002" y="373.8" xml:space="preserve" font-family="'JetBrains Mono','SFMono-Regular','Cascadia Code','Consolas',monospace" font-size="10.33" fill="url(#asciiGrad)" opacity="0">              %%%%%%.::::::::::.%%%%%%              <animate attributeName="opacity" from="0" to="1" begin="1.34s" dur="0.4s" fill="freeze"/></text><text x="76.20000000000002" y="386.40000000000003" xml:space="preserve" font-family="'JetBrains Mono','SFMono-Regular','Cascadia Code','Consolas',monospace" font-size="10.33" fill="url(#asciiGrad)" opacity="0">           %%%%%::::------------::::%%%%%           <animate attributeName="opacity" from="0" to="1" begin="1.385s" dur="0.4s" fill="freeze"/></text><text x="76.20000000000002" y="399.0" xml:space="preserve" font-family="'JetBrains Mono','SFMono-Regular','Cascadia Code','Consolas',monospace" font-size="10.33" fill="url(#asciiGrad)" opacity="0">         %%%%.::-----==========-----::.%%%%         <animate attributeName="opacity" from="0" to="1" begin="1.43s" dur="0.4s" fill="freeze"/></text><text x="76.20000000000002" y="411.6" xml:space="preserve" font-family="'JetBrains Mono','SFMono-Regular','Cascadia Code','Consolas',monospace" font-size="10.33" fill="url(#asciiGrad)" opacity="0">        %%%.::---=====++++++++=====---::.%%%        <animate attributeName="opacity" from="0" to="1" begin="1.475s" dur="0.4s" fill="freeze"/></text><text x="76.20000000000002" y="424.2" xml:space="preserve" font-family="'JetBrains Mono','SFMono-Regular','Cascadia Code','Consolas',monospace" font-size="10.33" fill="url(#asciiGrad)" opacity="0">      %%%%::---===++++++****++++++===---::%%%%      <animate attributeName="opacity" from="0" to="1" begin="1.52s" dur="0.4s" fill="freeze"/></text><text x="76.20000000000002" y="436.8" xml:space="preserve" font-family="'JetBrains Mono','SFMono-Regular','Cascadia Code','Consolas',monospace" font-size="10.33" fill="url(#asciiGrad)" opacity="0">     %%%.::--===+++**************+++===--::.%%%     <animate attributeName="opacity" from="0" to="1" begin="1.565s" dur="0.4s" fill="freeze"/></text><text x="76.20000000000002" y="449.40000000000003" xml:space="preserve" font-family="'JetBrains Mono','SFMono-Regular','Cascadia Code','Consolas',monospace" font-size="10.33" fill="url(#asciiGrad)" opacity="0">    %%%.:--===+++*****########*****+++===--:.%%%    <animate attributeName="opacity" from="0" to="1" begin="1.61s" dur="0.4s" fill="freeze"/></text><text x="76.20000000000002" y="462.0" xml:space="preserve" font-family="'JetBrains Mono','SFMono-Regular','Cascadia Code','Consolas',monospace" font-size="10.33" fill="url(#asciiGrad)" opacity="0">    %%.::-===++****##############****++===-::.%%    <animate attributeName="opacity" from="0" to="1" begin="1.655s" dur="0.4s" fill="freeze"/></text><text x="76.20000000000002" y="474.6" xml:space="preserve" font-family="'JetBrains Mono','SFMono-Regular','Cascadia Code','Consolas',monospace" font-size="10.33" fill="url(#asciiGrad)" opacity="0">   %%%::--==++***#####%%%%%%%%#####***++==--::%%%   <animate attributeName="opacity" from="0" to="1" begin="1.7s" dur="0.4s" fill="freeze"/></text><text x="76.20000000000002" y="487.2" xml:space="preserve" font-family="'JetBrains Mono','SFMono-Regular','Cascadia Code','Consolas',monospace" font-size="10.33" fill="url(#asciiGrad)" opacity="0">   %%.:--==++***####%%%%%%%%%%%%####***++==--:.%%   <animate attributeName="opacity" from="0" to="1" begin="1.745s" dur="0.4s" fill="freeze"/></text><text x="76.20000000000002" y="499.8" xml:space="preserve" font-family="'JetBrains Mono','SFMono-Regular','Cascadia Code','Consolas',monospace" font-size="10.33" fill="url(#asciiGrad)" opacity="0">  %%%::--=+++**####%%%%%%%%%%%%%%####**+++=--::%%%  <animate attributeName="opacity" from="0" to="1" begin="1.79s" dur="0.4s" fill="freeze"/></text><text x="76.20000000000002" y="512.4" xml:space="preserve" font-family="'JetBrains Mono','SFMono-Regular','Cascadia Code','Consolas',monospace" font-size="10.33" fill="url(#asciiGrad)" opacity="0">  %%%::-==++***###%%%%%%%%%%%%%%%%###***++==-::%%%  <animate attributeName="opacity" from="0" to="1" begin="1.835s" dur="0.4s" fill="freeze"/></text><rect x="20" y="68" width="440" height="26" fill="url(#scanGradV)" opacity="0.5"><animate attributeName="y" values="68;522.4;68" dur="5.5s" begin="1.9s" repeatCount="indefinite"/></rect><rect x="394.2" y="503.4" width="6.2" height="11" fill="#22D3EE" opacity="0"><animate attributeName="opacity" begin="2.03s" dur="1s" values="0;1;1;0;0" keyTimes="0;0.05;0.5;0.55;1" repeatCount="indefinite"/></rect></g></g><clipPath id="clip-right"><rect x="480" y="20" width="680" height="570" rx="20"/></clipPath><g clip-path="url(#clip-right)"><rect x="480" y="20" width="680" height="570" fill="#0F172A" fill-opacity="0.55"/><rect x="480" y="20" width="680" height="570" fill="url(#glassSheen)"/><rect x="480" y="20" width="680" height="38" fill="#111827" fill-opacity="0.6"/><line x1="480" y1="58" x2="1160" y2="58" stroke="#FFFFFF" stroke-opacity="0.35" stroke-width="1"/><circle cx="500" cy="39.0" r="4.6" fill="#FF5F56" fill-opacity="0.85"/><circle cx="516" cy="39.0" r="4.6" fill="#FFBD2E" fill-opacity="0.85"/><circle cx="532" cy="39.0" r="4.6" fill="#27C93F" fill-opacity="0.85"/><text x="820.0" y="43.0" text-anchor="middle" font-family="'JetBrains Mono','SFMono-Regular','Cascadia Code','Consolas',monospace" font-size="11" letter-spacing="0.5" fill="#94A3B8" fill-opacity="0.85">zsh — raju@devbox</text></g><rect x="480" y="20" width="680" height="570" rx="20" fill="none" stroke="#FFFFFF" stroke-opacity="0.14" stroke-width="1"/><rect x="480" y="20" width="680" height="570" rx="20" fill="none" stroke="url(#accentGrad)" stroke-opacity="0.22" stroke-width="1"/><g opacity="0"><animate attributeName="opacity" from="0" to="1" begin="0.15s" dur="0.5s" fill="freeze"/><text x="520" y="98" font-family="'JetBrains Mono','SFMono-Regular','Cascadia Code','Consolas',monospace" font-size="15" fill="#94A3B8">&gt; Hi <tspan font-family="'Inter','Segoe UI',system-ui,-apple-system,sans-serif">👋</tspan></text></g><ellipse cx="700" cy="126" rx="230" ry="26" fill="url(#accentGrad)" filter="url(#glowName)" opacity="0.14"><animate attributeName="opacity" values="0.10;0.24;0.10" dur="4.5s" begin="1.2s" repeatCount="indefinite"/></ellipse><g opacity="0" transform="translate(0,10)"><animate attributeName="opacity" from="0" to="1" begin="0.45s" dur="0.55s" fill="freeze"/><animateTransform attributeName="transform" type="translate" from="0,10" to="0,0" begin="0.45s" dur="0.55s" fill="freeze"/><text x="520" y="136" font-family="'Inter','Segoe UI',system-ui,-apple-system,sans-serif" font-size="32" font-weight="700" fill="#F8FAFC">I'm Raju Pandit</text></g><text x="520" y="176" font-family="'JetBrains Mono','SFMono-Regular','Cascadia Code','Consolas',monospace" font-size="18" fill="#22D3EE">> </text><clipPath id="clipRole0"><rect x="541.6" y="158" width="0" height="25.2"><animate attributeName="width" values="0.00;216.00;216.00;0.00;0.00" keyTimes="0.0;0.112782;0.199248;0.25188;1.0" dur="13.30s" begin="1.0s" repeatCount="indefinite"/></rect></clipPath><g clip-path="url(#clipRole0)"><text x="541.6" y="176" font-family="'JetBrains Mono','SFMono-Regular','Cascadia Code','Consolas',monospace" font-size="18" font-weight="600" fill="url(#roleGrad)">Full Stack Developer</text></g><clipPath id="clipRole1"><rect x="541.6" y="158" width="0" height="25.2"><animate attributeName="width" values="0.00;0.00;216.00;216.00;0.00;0.00" keyTimes="0.0;0.270677;0.383459;0.469925;0.522556;1.0" dur="13.30s" begin="1.0s" repeatCount="indefinite"/></rect></clipPath><g clip-path="url(#clipRole1)"><text x="541.6" y="176" font-family="'JetBrains Mono','SFMono-Regular','Cascadia Code','Consolas',monospace" font-size="18" font-weight="600" fill="url(#roleGrad)">MERN Stack Developer</text></g><clipPath id="clipRole2"><rect x="541.6" y="158" width="0" height="25.2"><animate attributeName="width" values="0.00;0.00;194.40;194.40;0.00;0.00" keyTimes="0.0;0.541353;0.642857;0.729323;0.776692;1.0" dur="13.30s" begin="1.0s" repeatCount="indefinite"/></rect></clipPath><g clip-path="url(#clipRole2)"><text x="541.6" y="176" font-family="'JetBrains Mono','SFMono-Regular','Cascadia Code','Consolas',monospace" font-size="18" font-weight="600" fill="url(#roleGrad)">DSA Problem Solver</text></g><clipPath id="clipRole3"><rect x="541.6" y="158" width="0" height="25.2"><animate attributeName="width" values="0.00;0.00;129.60;129.60;0.00;0.00" keyTimes="0.0;0.795489;0.863158;0.949624;0.981203;1.0" dur="13.30s" begin="1.0s" repeatCount="indefinite"/></rect></clipPath><g clip-path="url(#clipRole3)"><text x="541.6" y="176" font-family="'JetBrains Mono','SFMono-Regular','Cascadia Code','Consolas',monospace" font-size="18" font-weight="600" fill="url(#roleGrad)">Aspiring SDE</text></g><rect y="160" width="2.6" height="19.8" fill="#10B981"><animate attributeName="x" values="541.6;757.6;757.6;541.6;541.6;757.6;757.6;541.6;541.6;736.0;736.0;541.6;541.6;671.2;671.2;541.6;541.6" keyTimes="0.0;0.112782;0.199248;0.25188;0.270677;0.383459;0.469925;0.522556;0.541353;0.642857;0.729323;0.776692;0.795489;0.863158;0.949624;0.981203;1.0" dur="13.30s" begin="1.0s" repeatCount="indefinite"/><animate attributeName="opacity" values="1;1;0;0;1" keyTimes="0;0.5;0.55;0.95;1" dur="0.9s" begin="1.0s" repeatCount="indefinite"/></rect><line x1="520" y1="200" x2="1120" y2="200" stroke="url(#accentGrad)" stroke-opacity="0.35" stroke-width="1" stroke-dasharray="600"><animate attributeName="stroke-dashoffset" from="600" to="0" begin="1.0s" dur="0.9s" fill="freeze"/></line><g opacity="0"><animate attributeName="opacity" from="0" to="1" begin="1.35s" dur="0.45s" fill="freeze"/><animateTransform attributeName="transform" type="translate" from="-8,0" to="0,0" begin="1.35s" dur="0.45s" fill="freeze"/><path d="M9 0C4.9 0 1.6 3.3 1.6 7.4c0 5.6 7.4 12.6 7.4 12.6s7.4-7 7.4-12.6C16.4 3.3 13.1 0 9 0zm0 10.1a2.7 2.7 0 110-5.4 2.7 2.7 0 010 5.4z" transform="translate(520,205) scale(0.9)" fill="url(#accentGrad)"/><text x="546" y="218" font-family="'JetBrains Mono','SFMono-Regular','Cascadia Code','Consolas',monospace" font-size="12.5" fill="#94A3B8">location</text><text x="670" y="218" font-family="'Inter','Segoe UI',system-ui,-apple-system,sans-serif" font-size="13" fill="#F8FAFC">Delhi NCR, India</text></g><g opacity="0"><animate attributeName="opacity" from="0" to="1" begin="1.57s" dur="0.45s" fill="freeze"/><animateTransform attributeName="transform" type="translate" from="-8,0" to="0,0" begin="1.57s" dur="0.45s" fill="freeze"/><path d="M9 0L0 4.5l9 4.5 7.4-3.7v5.4H18V4.5L9 0zM3.6 8.1v4.5C3.6 15 6 17 9 17s5.4-2 5.4-4.4V8.1L9 10.8 3.6 8.1z" transform="translate(520,233) scale(0.9)" fill="url(#accentGrad)"/><text x="546" y="246" font-family="'JetBrains Mono','SFMono-Regular','Cascadia Code','Consolas',monospace" font-size="12.5" fill="#94A3B8">education</text><text x="670" y="246" font-family="'Inter','Segoe UI',system-ui,-apple-system,sans-serif" font-size="13" fill="#F8FAFC">B.Tech CSE, RGPV Bhopal</text></g><g opacity="0"><animate attributeName="opacity" from="0" to="1" begin="1.79s" dur="0.45s" fill="freeze"/><animateTransform attributeName="transform" type="translate" from="-8,0" to="0,0" begin="1.79s" dur="0.45s" fill="freeze"/><path d="M9 0a9 9 0 100 18A9 9 0 009 0zm0 14.4A5.4 5.4 0 119 3.6a5.4 5.4 0 010 10.8zm0-9a3.6 3.6 0 100 7.2 3.6 3.6 0 000-7.2z" transform="translate(520,261) scale(0.9)" fill="url(#accentGrad)"/><text x="546" y="274" font-family="'JetBrains Mono','SFMono-Regular','Cascadia Code','Consolas',monospace" font-size="12.5" fill="#94A3B8">focus</text><text x="670" y="274" font-family="'Inter','Segoe UI',system-ui,-apple-system,sans-serif" font-size="13" fill="#F8FAFC">DSA . System Design . Full Stack</text></g><g opacity="0"><animate attributeName="opacity" from="0" to="1" begin="2.01s" dur="0.45s" fill="freeze"/><animateTransform attributeName="transform" type="translate" from="-8,0" to="0,0" begin="2.01s" dur="0.45s" fill="freeze"/><path d="M6.3 2.7h5.4v1.8H6.3V2.7zM2 5.4h14v9.9H2V5.4zm1.8 1.8v6.3h10.4V7.2H3.8z" transform="translate(520,289) scale(0.9)" fill="url(#accentGrad)"/><text x="546" y="302" font-family="'JetBrains Mono','SFMono-Regular','Cascadia Code','Consolas',monospace" font-size="12.5" fill="#94A3B8">portfolio</text><text x="670" y="302" font-family="'Inter','Segoe UI',system-ui,-apple-system,sans-serif" font-size="13" fill="#F8FAFC">yourportfolio.dev</text></g><g opacity="0"><animate attributeName="opacity" from="0" to="1" begin="2.23s" dur="0.45s" fill="freeze"/><animateTransform attributeName="transform" type="translate" from="-8,0" to="0,0" begin="2.23s" dur="0.45s" fill="freeze"/><path d="M1.8 3.6h14.4c1 0 1.8.8 1.8 1.8v9c0 1-.8 1.8-1.8 1.8H1.8C.8 16.2 0 15.4 0 14.4v-9c0-1 .8-1.8 1.8-1.8zm0 1.9v.1l7.2 4.8 7.2-4.8v-.1H1.8zM16.2 7.5l-6.6 4.4a1 1 0 01-1.2 0L1.8 7.5v6.9h14.4V7.5z" transform="translate(520,317) scale(0.9)" fill="url(#accentGrad)"/><text x="546" y="330" font-family="'JetBrains Mono','SFMono-Regular','Cascadia Code','Consolas',monospace" font-size="12.5" fill="#94A3B8">email</text><text x="670" y="330" font-family="'Inter','Segoe UI',system-ui,-apple-system,sans-serif" font-size="13" fill="#F8FAFC">you@example.com</text></g><g opacity="0"><animate attributeName="opacity" from="0" to="1" begin="2.6s" dur="0.4s" fill="freeze"/><text x="520" y="388" font-family="'JetBrains Mono','SFMono-Regular','Cascadia Code','Consolas',monospace" font-size="12.5" letter-spacing="1" fill="#94A3B8">// SKILLS</text></g><g opacity="0"><animate attributeName="opacity" from="0" to="1" begin="2.75s" dur="0.35s" fill="freeze"/><g transform="translate(554.75,421.0)"><animateTransform attributeName="transform" type="scale" from="0.5" to="1" begin="2.75s" dur="0.4s" fill="freeze" additive="sum"/><g transform="translate(-554.75,-421.0)"><rect x="520" y="404" width="69.5" height="34" rx="17" fill="#0F172A" fill-opacity="0.7" stroke="url(#accentGrad)" stroke-opacity="0.55" stroke-width="1.1"/><rect x="520" y="404" width="69.5" height="34" rx="17" fill="none" stroke="url(#accentGrad)" stroke-width="2.2" opacity="0.2"><animate attributeName="opacity" values="0.15;0.5;0.15" dur="2.6s" begin="3.25s" repeatCount="indefinite"/></rect><text x="554.75" y="425.2" text-anchor="middle" font-family="'JetBrains Mono','SFMono-Regular','Cascadia Code','Consolas',monospace" font-size="12.5" fill="#F8FAFC">React</text></g></g></g><g opacity="0"><animate attributeName="opacity" from="0" to="1" begin="2.83s" dur="0.35s" fill="freeze"/><g transform="translate(641.35,421.0)"><animateTransform attributeName="transform" type="scale" from="0.5" to="1" begin="2.83s" dur="0.4s" fill="freeze" additive="sum"/><g transform="translate(-641.35,-421.0)"><rect x="599.5" y="404" width="83.7" height="34" rx="17" fill="#0F172A" fill-opacity="0.7" stroke="url(#accentGrad)" stroke-opacity="0.55" stroke-width="1.1"/><rect x="599.5" y="404" width="83.7" height="34" rx="17" fill="none" stroke="url(#accentGrad)" stroke-width="2.2" opacity="0.2"><animate attributeName="opacity" values="0.15;0.5;0.15" dur="2.6s" begin="3.63s" repeatCount="indefinite"/></rect><text x="641.35" y="425.2" text-anchor="middle" font-family="'JetBrains Mono','SFMono-Regular','Cascadia Code','Consolas',monospace" font-size="12.5" fill="#F8FAFC">Next.js</text></g></g></g><g opacity="0"><animate attributeName="opacity" from="0" to="1" begin="2.91s" dur="0.35s" fill="freeze"/><g transform="translate(735.0500000000001,421.0)"><animateTransform attributeName="transform" type="scale" from="0.5" to="1" begin="2.91s" dur="0.4s" fill="freeze" additive="sum"/><g transform="translate(-735.0500000000001,-421.0)"><rect x="693.2" y="404" width="83.7" height="34" rx="17" fill="#0F172A" fill-opacity="0.7" stroke="url(#accentGrad)" stroke-opacity="0.55" stroke-width="1.1"/><rect x="693.2" y="404" width="83.7" height="34" rx="17" fill="none" stroke="url(#accentGrad)" stroke-width="2.2" opacity="0.2"><animate attributeName="opacity" values="0.15;0.5;0.15" dur="2.6s" begin="4.01s" repeatCount="indefinite"/></rect><text x="735.0500000000001" y="425.2" text-anchor="middle" font-family="'JetBrains Mono','SFMono-Regular','Cascadia Code','Consolas',monospace" font-size="12.5" fill="#F8FAFC">Node.js</text></g></g></g><g opacity="0"><animate attributeName="opacity" from="0" to="1" begin="2.99s" dur="0.35s" fill="freeze"/><g transform="translate(828.7500000000001,421.0)"><animateTransform attributeName="transform" type="scale" from="0.5" to="1" begin="2.99s" dur="0.4s" fill="freeze" additive="sum"/><g transform="translate(-828.7500000000001,-421.0)"><rect x="786.9000000000001" y="404" width="83.7" height="34" rx="17" fill="#0F172A" fill-opacity="0.7" stroke="url(#accentGrad)" stroke-opacity="0.55" stroke-width="1.1"/><rect x="786.9000000000001" y="404" width="83.7" height="34" rx="17" fill="none" stroke="url(#accentGrad)" stroke-width="2.2" opacity="0.2"><animate attributeName="opacity" values="0.15;0.5;0.15" dur="2.6s" begin="4.39s" repeatCount="indefinite"/></rect><text x="828.7500000000001" y="425.2" text-anchor="middle" font-family="'JetBrains Mono','SFMono-Regular','Cascadia Code','Consolas',monospace" font-size="12.5" fill="#F8FAFC">Express</text></g></g></g><g opacity="0"><animate attributeName="opacity" from="0" to="1" begin="3.07s" dur="0.35s" fill="freeze"/><g transform="translate(922.4500000000002,421.0)"><animateTransform attributeName="transform" type="scale" from="0.5" to="1" begin="3.07s" dur="0.4s" fill="freeze" additive="sum"/><g transform="translate(-922.4500000000002,-421.0)"><rect x="880.6000000000001" y="404" width="83.7" height="34" rx="17" fill="#0F172A" fill-opacity="0.7" stroke="url(#accentGrad)" stroke-opacity="0.55" stroke-width="1.1"/><rect x="880.6000000000001" y="404" width="83.7" height="34" rx="17" fill="none" stroke="url(#accentGrad)" stroke-width="2.2" opacity="0.2"><animate attributeName="opacity" values="0.15;0.5;0.15" dur="2.6s" begin="3.57s" repeatCount="indefinite"/></rect><text x="922.4500000000002" y="425.2" text-anchor="middle" font-family="'JetBrains Mono','SFMono-Regular','Cascadia Code','Consolas',monospace" font-size="12.5" fill="#F8FAFC">MongoDB</text></g></g></g><g opacity="0"><animate attributeName="opacity" from="0" to="1" begin="3.15s" dur="0.35s" fill="freeze"/><g transform="translate(1026.8000000000002,421.0)"><animateTransform attributeName="transform" type="scale" from="0.5" to="1" begin="3.15s" dur="0.4s" fill="freeze" additive="sum"/><g transform="translate(-1026.8000000000002,-421.0)"><rect x="974.3000000000002" y="404" width="105.0" height="34" rx="17" fill="#0F172A" fill-opacity="0.7" stroke="url(#accentGrad)" stroke-opacity="0.55" stroke-width="1.1"/><rect x="974.3000000000002" y="404" width="105.0" height="34" rx="17" fill="none" stroke="url(#accentGrad)" stroke-width="2.2" opacity="0.2"><animate attributeName="opacity" values="0.15;0.5;0.15" dur="2.6s" begin="3.95s" repeatCount="indefinite"/></rect><text x="1026.8000000000002" y="425.2" text-anchor="middle" font-family="'JetBrains Mono','SFMono-Regular','Cascadia Code','Consolas',monospace" font-size="12.5" fill="#F8FAFC">JavaScript</text></g></g></g><g opacity="0"><animate attributeName="opacity" from="0" to="1" begin="3.23s" dur="0.35s" fill="freeze"/><g transform="translate(572.5,467.0)"><animateTransform attributeName="transform" type="scale" from="0.5" to="1" begin="3.23s" dur="0.4s" fill="freeze" additive="sum"/><g transform="translate(-572.5,-467.0)"><rect x="520" y="450" width="105.0" height="34" rx="17" fill="#0F172A" fill-opacity="0.7" stroke="url(#accentGrad)" stroke-opacity="0.55" stroke-width="1.1"/><rect x="520" y="450" width="105.0" height="34" rx="17" fill="none" stroke="url(#accentGrad)" stroke-width="2.2" opacity="0.2"><animate attributeName="opacity" values="0.15;0.5;0.15" dur="2.6s" begin="4.33s" repeatCount="indefinite"/></rect><text x="572.5" y="471.2" text-anchor="middle" font-family="'JetBrains Mono','SFMono-Regular','Cascadia Code','Consolas',monospace" font-size="12.5" fill="#F8FAFC">TypeScript</text></g></g></g><g opacity="0"><animate attributeName="opacity" from="0" to="1" begin="3.31s" dur="0.35s" fill="freeze"/><g transform="translate(673.3,467.0)"><animateTransform attributeName="transform" type="scale" from="0.5" to="1" begin="3.31s" dur="0.4s" fill="freeze" additive="sum"/><g transform="translate(-673.3,-467.0)"><rect x="635.0" y="450" width="76.6" height="34" rx="17" fill="#0F172A" fill-opacity="0.7" stroke="url(#accentGrad)" stroke-opacity="0.55" stroke-width="1.1"/><rect x="635.0" y="450" width="76.6" height="34" rx="17" fill="none" stroke="url(#accentGrad)" stroke-width="2.2" opacity="0.2"><animate attributeName="opacity" values="0.15;0.5;0.15" dur="2.6s" begin="4.71s" repeatCount="indefinite"/></rect><text x="673.3" y="471.2" text-anchor="middle" font-family="'JetBrains Mono','SFMono-Regular','Cascadia Code','Consolas',monospace" font-size="12.5" fill="#F8FAFC">Python</text></g></g></g><g opacity="0"><animate attributeName="opacity" from="0" to="1" begin="3.39s" dur="0.35s" fill="freeze"/><g transform="translate(767.0,467.0)"><animateTransform attributeName="transform" type="scale" from="0.5" to="1" begin="3.39s" dur="0.4s" fill="freeze" additive="sum"/><g transform="translate(-767.0,-467.0)"><rect x="721.6" y="450" width="90.8" height="34" rx="17" fill="#0F172A" fill-opacity="0.7" stroke="url(#accentGrad)" stroke-opacity="0.55" stroke-width="1.1"/><rect x="721.6" y="450" width="90.8" height="34" rx="17" fill="none" stroke="url(#accentGrad)" stroke-width="2.2" opacity="0.2"><animate attributeName="opacity" values="0.15;0.5;0.15" dur="2.6s" begin="3.89s" repeatCount="indefinite"/></rect><text x="767.0" y="471.2" text-anchor="middle" font-family="'JetBrains Mono','SFMono-Regular','Cascadia Code','Consolas',monospace" font-size="12.5" fill="#F8FAFC">Tailwind</text></g></g></g><g opacity="0"><animate attributeName="opacity" from="0" to="1" begin="3.47s" dur="0.35s" fill="freeze"/><g transform="translate(860.6999999999999,467.0)"><animateTransform attributeName="transform" type="scale" from="0.5" to="1" begin="3.47s" dur="0.4s" fill="freeze" additive="sum"/><g transform="translate(-860.6999999999999,-467.0)"><rect x="822.4" y="450" width="76.6" height="34" rx="17" fill="#0F172A" fill-opacity="0.7" stroke="url(#accentGrad)" stroke-opacity="0.55" stroke-width="1.1"/><rect x="822.4" y="450" width="76.6" height="34" rx="17" fill="none" stroke="url(#accentGrad)" stroke-width="2.2" opacity="0.2"><animate attributeName="opacity" values="0.15;0.5;0.15" dur="2.6s" begin="4.27s" repeatCount="indefinite"/></rect><text x="860.6999999999999" y="471.2" text-anchor="middle" font-family="'JetBrains Mono','SFMono-Regular','Cascadia Code','Consolas',monospace" font-size="12.5" fill="#F8FAFC">Docker</text></g></g></g><g opacity="0"><animate attributeName="opacity" from="0" to="1" begin="3.55s" dur="0.35s" fill="freeze"/><g transform="translate(936.65,467.0)"><animateTransform attributeName="transform" type="scale" from="0.5" to="1" begin="3.55s" dur="0.4s" fill="freeze" additive="sum"/><g transform="translate(-936.65,-467.0)"><rect x="909.0" y="450" width="55.3" height="34" rx="17" fill="#0F172A" fill-opacity="0.7" stroke="url(#accentGrad)" stroke-opacity="0.55" stroke-width="1.1"/><rect x="909.0" y="450" width="55.3" height="34" rx="17" fill="none" stroke="url(#accentGrad)" stroke-width="2.2" opacity="0.2"><animate attributeName="opacity" values="0.15;0.5;0.15" dur="2.6s" begin="4.65s" repeatCount="indefinite"/></rect><text x="936.65" y="471.2" text-anchor="middle" font-family="'JetBrains Mono','SFMono-Regular','Cascadia Code','Consolas',monospace" font-size="12.5" fill="#F8FAFC">Git</text></g></g></g><g opacity="0"><animate attributeName="opacity" from="0" to="1" begin="3.63s" dur="0.35s" fill="freeze"/><g transform="translate(1023.25,467.0)"><animateTransform attributeName="transform" type="scale" from="0.5" to="1" begin="3.63s" dur="0.4s" fill="freeze" additive="sum"/><g transform="translate(-1023.25,-467.0)"><rect x="974.3" y="450" width="97.9" height="34" rx="17" fill="#0F172A" fill-opacity="0.7" stroke="url(#accentGrad)" stroke-opacity="0.55" stroke-width="1.1"/><rect x="974.3" y="450" width="97.9" height="34" rx="17" fill="none" stroke="url(#accentGrad)" stroke-width="2.2" opacity="0.2"><animate attributeName="opacity" values="0.15;0.5;0.15" dur="2.6s" begin="5.03s" repeatCount="indefinite"/></rect><text x="1023.25" y="471.2" text-anchor="middle" font-family="'JetBrains Mono','SFMono-Regular','Cascadia Code','Consolas',monospace" font-size="12.5" fill="#F8FAFC">REST APIs</text></g></g></g><line x1="520" y1="504" x2="1120" y2="504" stroke="url(#accentGrad)" stroke-opacity="0.35" stroke-width="1" stroke-dasharray="600"><animate attributeName="stroke-dashoffset" from="600" to="0" begin="3.6s" dur="0.9s" fill="freeze"/></line><g opacity="0" transform="translate(724.0,536)"><animate attributeName="opacity" from="0" to="1" begin="3.9s" dur="0.4s" fill="freeze"/><circle r="18" fill="#0F172A" fill-opacity="0.7" stroke="url(#accentGrad)" stroke-opacity="0.6" stroke-width="1.2"/><circle r="21" fill="none" stroke="url(#accentGrad)" stroke-width="1" opacity="0"><animate attributeName="opacity" values="0;0.5;0" dur="3s" begin="1.5s" repeatCount="indefinite"/><animate attributeName="r" values="18;25;18" dur="3s" begin="1.5s" repeatCount="indefinite"/></circle><path d="M9 0C4 0 0 4 0 9c0 4 2.6 7.4 6.2 8.6.5.1.6-.2.6-.5v-1.7c-2.5.6-3-1.1-3-1.1-.4-1-1-1.3-1-1.3-.9-.6.1-.6.1-.6 1 .1 1.5 1 1.5 1 .9 1.5 2.3 1.1 2.8.8.1-.6.3-1.1.6-1.3-2-.2-4.1-1-4.1-4.5 0-1 .3-1.8.9-2.5-.1-.2-.4-1.2.1-2.5 0 0 .8-.2 2.5 1 .7-.2 1.5-.3 2.3-.3.8 0 1.6.1 2.3.3 1.7-1.2 2.5-1 2.5-1 .5 1.3.2 2.3.1 2.5.6.7.9 1.5.9 2.5 0 3.5-2.1 4.3-4.1 4.5.3.3.6.8.6 1.7v2.5c0 .3.1.6.6.5C15.4 16.4 18 13 18 9c0-5-4-9-9-9z" transform="translate(-9,-9) scale(1)" fill="#94A3B8"/></g><g opacity="0" transform="translate(788.0,536)"><animate attributeName="opacity" from="0" to="1" begin="4.02s" dur="0.4s" fill="freeze"/><circle r="18" fill="#0F172A" fill-opacity="0.7" stroke="url(#accentGrad)" stroke-opacity="0.6" stroke-width="1.2"/><circle r="21" fill="none" stroke="url(#accentGrad)" stroke-width="1" opacity="0"><animate attributeName="opacity" values="0;0.5;0" dur="3s" begin="1.9s" repeatCount="indefinite"/><animate attributeName="r" values="18;25;18" dur="3s" begin="1.9s" repeatCount="indefinite"/></circle><path d="M4 1.5C4 2.6 3.1 3.5 2 3.5S0 2.6 0 1.5 0.9 0 2 0s2 0.9 2 1.5zM0.2 6h3.6v12H0.2V6zM6.7 6h3.4v1.6h.05c.5-.9 1.7-1.9 3.5-1.9 3.7 0 4.4 2.4 4.4 5.6V18h-3.6v-6c0-1.4 0-3.2-2-3.2s-2.3 1.6-2.3 3.1V18H6.7V6z" transform="translate(-9,-9) scale(1)" fill="#94A3B8"/></g><g opacity="0" transform="translate(852.0,536)"><animate attributeName="opacity" from="0" to="1" begin="4.14s" dur="0.4s" fill="freeze"/><circle r="18" fill="#0F172A" fill-opacity="0.7" stroke="url(#accentGrad)" stroke-opacity="0.6" stroke-width="1.2"/><circle r="21" fill="none" stroke="url(#accentGrad)" stroke-width="1" opacity="0"><animate attributeName="opacity" values="0;0.5;0" dur="3s" begin="2.3s" repeatCount="indefinite"/><animate attributeName="r" values="18;25;18" dur="3s" begin="2.3s" repeatCount="indefinite"/></circle><path d="M18 3.4c-.7.3-1.4.5-2.1.6.8-.5 1.3-1.2 1.6-2.1-.7.4-1.5.8-2.4.9C14.4 2 13.4 1.5 12.3 1.5c-2.1 0-3.8 1.7-3.8 3.8 0 .3 0 .6.1.9-3.1-.2-5.9-1.7-7.7-4-.3.6-.5 1.2-.5 1.9 0 1.3.7 2.5 1.7 3.2-.6 0-1.2-.2-1.7-.5v.1c0 1.9 1.3 3.4 3.1 3.8-.3.1-.7.1-1 .1-.2 0-.5 0-.7-.1.5 1.5 1.9 2.6 3.6 2.7-1.3 1-3 1.7-4.8 1.7-.3 0-.6 0-.9-.1C1.4 16.3 3.4 17 5.6 17c6.8 0 10.5-5.6 10.5-10.5v-.5c.7-.5 1.3-1.2 1.9-1.9z" transform="translate(-9,-9) scale(1)" fill="#94A3B8"/></g><g opacity="0" transform="translate(916.0,536)"><animate attributeName="opacity" from="0" to="1" begin="4.26s" dur="0.4s" fill="freeze"/><circle r="18" fill="#0F172A" fill-opacity="0.7" stroke="url(#accentGrad)" stroke-opacity="0.6" stroke-width="1.2"/><circle r="21" fill="none" stroke="url(#accentGrad)" stroke-width="1" opacity="0"><animate attributeName="opacity" values="0;0.5;0" dur="3s" begin="2.7s" repeatCount="indefinite"/><animate attributeName="r" values="18;25;18" dur="3s" begin="2.7s" repeatCount="indefinite"/></circle><path d="M9 0a9 9 0 100 18A9 9 0 009 0zm6.9 5.4h-2.8a14 14 0 00-1.2-3.4 7.4 7.4 0 014 3.4zM9 1.9c.6.9 1.4 2.2 1.8 3.5H7.2C7.6 4.1 8.4 2.8 9 1.9zM1.9 10.8a7 7 0 010-3.6h3.2a15 15 0 000 3.6H1.9zm.9 1.8h2.8a14 14 0 001.2 3.4 7.4 7.4 0 01-4-3.4zm2.8-9H2.8a7.4 7.4 0 014-3.4 14 14 0 00-1.2 3.4zM9 16.1c-.6-.9-1.4-2.2-1.8-3.5h3.6c-.4 1.3-1.2 2.6-1.8 3.5zm2.2-5.3H6.8a13 13 0 010-3.6h4.4a13 13 0 010 3.6zm.1 4.9a14 14 0 001.2-3.4h2.8a7.4 7.4 0 01-4 3.4zm1.5-5.2a15 15 0 000-3.6h3.2a7 7 0 010 3.6h-3.2z" transform="translate(-9,-9) scale(1)" fill="#94A3B8"/></g></g><rect x="1" y="1" width="1178" height="608" rx="27" fill="none" stroke="url(#borderShimmer)" stroke-width="1.4"/></svg>